<?xml version="1.0" encoding="iso-8859-1"?>
<!-- Generator: Adobe Illustrator 18.1.1, SVG Export Plug-In . SVG Version: 6.00 Build 0)  -->
<svg version="1.1" id="Capa_1" xmlns="http://www.w3.org/2000/svg" xmlns:xlink="http://www.w3.org/1999/xlink" x="0px" y="0px"
	 viewBox="0 0 61.363 61.363" style="enable-background:new 0 0 61.363 61.363;" xml:space="preserve">
<g>
	<g>
		<path d="M37.354,46.447l0.598,1.134l1.105-2.118c0,0,1.791-4.37,1.895-1.534c0.591,2.632,0.897-0.15,0.897-0.15
			c0.099-0.312,0.753-6.843,1.039,0.438c0.287,7.276,0.667,0.302,0.883,0.489c3.305,2.864,7.715,11.051,7.715,11.051h-9.222
			l0.343,0.65h9.957L42.059,36.489L37.354,46.447z"/>
		<path d="M35.102,45.007l-0.864-1.639L19.763,15.939L0,57.775h27.432h14.404l-0.497-0.943L35.102,45.007z M29.144,56.406H28.08
			H2.166l11.291-21.614c0,0,3.768-9.18,3.979-3.226c1.244,5.527,1.889-0.315,1.889-0.315c0.207-0.652,1.577-14.375,2.183,0.916
			c0.607,15.292,1.398,0.635,1.854,1.029c3.149,2.734,6.777,7.767,9.801,12.448c0.298,0.465,0.594,0.926,0.882,1.382
			c3.194,5.063,5.52,9.38,5.52,9.38H29.144z"/>
		<path d="M29.59,27.547l4.405,7.629h8.809l4.406-7.629l-4.406-7.629h-8.809L29.59,27.547z M36.124,28.247h-2.315v-0.699h2.315
			V28.247z M41.197,22.359l2.102,4.072h-9.798l2.101-4.072H41.197z"/>
		<rect x="36.189" y="17.405" width="4.419" height="1.293"/>
		<polygon points="39.71,11.688 39.804,11.483 36.664,10.061 36.587,10.229 22.345,3.587 21.791,4.775 36.047,11.424 36.038,11.441 
			36.699,11.74 36.627,11.919 39.204,14.497 37.636,16.064 38.288,16.715 40.506,14.497 38.642,12.634 60.81,22.973 61.363,21.785 
					"/>
	</g>
	<g>
	</g>
	<g>
	</g>
	<g>
	</g>
	<g>
	</g>
	<g>
	</g>
	<g>
	</g>
	<g>
	</g>
	<g>
	</g>
	<g>
	</g>
	<g>
	</g>
	<g>
	</g>
	<g>
	</g>
	<g>
	</g>
	<g>
	</g>
	<g>
	</g>
</g>
<g>
</g>
<g>
</g>
<g>
</g>
<g>
</g>
<g>
</g>
<g>
</g>
<g>
</g>
<g>
</g>
<g>
</g>
<g>
</g>
<g>
</g>
<g>
</g>
<g>
</g>
<g>
</g>
<g>
</g>
</svg>
